<svg xmlns="http://www.w3.org/2000/svg" xmlns:xlink="http://www.w3.org/1999/xlink" viewBox="0,0,256,256" width="64px" height="64px" fill-rule="nonzero"><defs><linearGradient x1="32" y1="5.333" x2="32" y2="59.867" gradientUnits="userSpaceOnUse" id="color-1"><stop offset="0" stop-color="#1a6dff"></stop><stop offset="1" stop-color="#2ef2ff"></stop></linearGradient><linearGradient x1="32" y1="5.333" x2="32" y2="59.867" gradientUnits="userSpaceOnUse" id="color-2"><stop offset="0" stop-color="#1a6dff"></stop><stop offset="1" stop-color="#2ef2ff"></stop></linearGradient><linearGradient x1="32" y1="21.5" x2="32" y2="26.336" gradientUnits="userSpaceOnUse" id="color-3"><stop offset="0" stop-color="#6dc7ff"></stop><stop offset="1" stop-color="#2ef2ff"></stop></linearGradient><linearGradient x1="32" y1="29.333" x2="32" y2="34.5" gradientUnits="userSpaceOnUse" id="color-4"><stop offset="0" stop-color="#6dc7ff"></stop><stop offset="1" stop-color="#2ef2ff"></stop></linearGradient><linearGradient x1="32" y1="37" x2="32" y2="41.337" gradientUnits="userSpaceOnUse" id="color-5"><stop offset="0" stop-color="#6dc7ff"></stop><stop offset="1" stop-color="#2ef2ff"></stop></linearGradient></defs><g fill="none" fill-rule="nonzero" stroke="none" stroke-width="1" stroke-linecap="butt" stroke-linejoin="miter" stroke-miterlimit="10" stroke-dasharray="" stroke-dashoffset="0" font-family="none" font-weight="none" font-size="none" text-anchor="none" style="mix-blend-mode: normal"><g transform="scale(4,4)"><path d="M32,58c-14.337,0 -26,-11.663 -26,-26c0,-14.337 11.663,-26 26,-26c14.337,0 26,11.663 26,26c0,14.337 -11.663,26 -26,26zM32,8c-13.233,0 -24,10.767 -24,24c0,13.233 10.767,24 24,24c13.233,0 24,-10.767 24,-24c0,-13.233 -10.767,-24 -24,-24z" fill="url(#color-1)"></path><path d="M32,52c-11.028,0 -20,-8.972 -20,-20c0,-11.028 8.972,-20 20,-20c11.028,0 20,8.972 20,20c0,11.028 -8.972,20 -20,20zM32,14c-9.925,0 -18,8.075 -18,18c0,9.925 8.075,18 18,18c9.925,0 18,-8.075 18,-18c0,-9.925 -8.075,-18 -18,-18z" fill="url(#color-2)"></path><path d="M42,25c0,0.552 -0.448,1 -1,1h-18c-0.552,0 -1,-0.448 -1,-1v-2c0,-0.552 0.448,-1 1,-1h18c0.552,0 1,0.448 1,1z" fill="url(#color-3)"></path><path d="M42,33c0,0.552 -0.448,1 -1,1h-18c-0.552,0 -1,-0.448 -1,-1v-2c0,-0.552 0.448,-1 1,-1h18c0.552,0 1,0.448 1,1z" fill="url(#color-4)"></path><path d="M42,41c0,0.552 -0.448,1 -1,1h-18c-0.552,0 -1,-0.448 -1,-1v-2c0,-0.552 0.448,-1 1,-1h18c0.552,0 1,0.448 1,1z" fill="url(#color-5)"></path></g></g></svg>